<svg width="1970" height="367" viewBox="0 0 1970 367" fill="none" xmlns="http://www.w3.org/2000/svg">
<path d="M1604.49 76.406C1638.88 28.7893 1695.47 31.8904 1719.47 39.393C1724.97 46.2288 1735.56 55.7988 1733.96 39.393C1732.36 22.9873 1762.29 10.5496 1777.46 6.38139C1869.84 -3.62212 1886.93 76.2393 1883.93 117.42C1943.12 150.232 1923.93 195.781 1906.93 214.454C1930.12 211.253 1934.26 236.129 1933.42 248.967C1984.21 261.771 1971.25 317.657 1958.42 344L2.80981 331.496C-8.78784 313.489 18.3068 295.316 33.3038 288.48C36.8031 296.65 43.0018 306.387 39.8025 279.978C36.6031 253.568 60.465 248.3 72.7959 248.967C69.5966 197.749 123.452 168.939 150.78 160.936C137.783 146.431 124.086 109.218 173.276 76.406C222.466 43.5945 254.093 76.406 263.758 96.9133C270.156 67.3029 298.084 70.9041 311.248 76.406C325.579 52.3976 366.137 11.3832 413.728 39.393C461.318 67.4029 455.553 103.082 446.721 117.42C479.515 107.417 485.047 135.26 483.714 150.432C580.495 117.62 644.682 202.45 664.678 248.967C691.072 197.749 750.994 216.955 777.655 232.961C800.451 180.543 854.473 183.444 878.635 191.446C855.44 137.027 909.962 105.75 940.123 96.9133C966.117 -44.7366 1081.26 -0.454315 1135.58 39.393C1176.78 -23.0289 1237.73 13.3839 1263.06 39.393C1307.45 39.393 1324.21 77.7399 1327.05 96.9133C1365.04 80.5075 1379.87 103.749 1382.53 117.42C1423.73 105.816 1439.36 141.596 1442.02 160.936C1453.62 142.929 1470.18 153.433 1477.02 160.936C1465.35 144.43 1451.52 104.416 1489.51 76.406C1527.51 48.3962 1571 78.4067 1587.99 96.9133C1579.16 109.918 1570.1 124.023 1604.49 76.406Z" fill="#E2FBF5"/>
<path d="M320.981 118.075C290.778 73.7808 241.083 76.6655 220.011 83.6447C215.182 90.0035 205.875 98.9058 207.28 83.6447C208.685 68.3835 182.404 56.8135 169.087 52.9362C87.9604 43.6306 72.9466 117.92 75.5806 156.228C23.6032 186.751 40.4608 229.122 55.3867 246.493C35.0172 243.515 31.3882 266.655 32.1199 278.597C-12.4824 290.508 -1.09769 342.495 10.1699 367L1727.53 355.368C1737.72 338.618 1713.92 321.713 1700.75 315.354C1697.68 322.954 1692.24 332.011 1695.05 307.444C1697.86 282.877 1676.9 277.976 1666.07 278.597C1668.88 230.952 1621.59 204.152 1597.59 196.708C1609 183.215 1621.03 148.598 1577.83 118.075C1534.64 87.553 1506.86 118.075 1498.38 137.152C1492.76 109.607 1468.23 112.957 1456.67 118.075C1444.09 95.7419 1408.47 57.589 1366.68 83.6447C1324.88 109.7 1329.95 142.89 1337.7 156.228C1308.9 146.923 1304.05 172.823 1305.22 186.937C1220.23 156.414 1163.86 235.326 1146.3 278.597C1123.12 230.952 1070.5 248.819 1047.08 263.708C1027.07 214.947 979.625 217.645 958.407 225.09C978.776 174.467 930.896 145.372 904.41 137.152C881.582 5.3846 780.466 46.5774 732.762 83.6447C696.588 25.5778 643.06 59.4501 620.817 83.6447C581.834 83.6447 567.113 119.316 564.625 137.152C531.261 121.891 518.238 143.511 515.896 156.228C479.723 145.434 465.997 178.717 463.655 196.708C453.471 179.958 438.925 189.728 432.926 196.708C443.169 181.353 455.315 144.131 421.951 118.075C388.587 92.0197 350.394 119.937 335.468 137.152C343.224 149.249 351.184 162.37 320.981 118.075Z" fill="#C1FFF0"/>
</svg>
