<svg width="169" height="187" viewBox="0 0 169 187" fill="none" xmlns="http://www.w3.org/2000/svg">
<path d="M13.675 96.25C13.675 89.04 15.285 82.6 18.505 76.93C21.795 71.19 26.24 66.745 31.84 63.595C37.51 60.375 43.845 58.765 50.845 58.765C59.035 58.765 66.21 60.865 72.37 65.065C78.53 69.265 82.835 75.075 85.285 82.495H68.38C66.7 78.995 64.32 76.37 61.24 74.62C58.23 72.87 54.73 71.995 50.74 71.995C46.47 71.995 42.655 73.01 39.295 75.04C36.005 77 33.415 79.8 31.525 83.44C29.705 87.08 28.795 91.35 28.795 96.25C28.795 101.08 29.705 105.35 31.525 109.06C33.415 112.7 36.005 115.535 39.295 117.565C42.655 119.525 46.47 120.505 50.74 120.505C54.73 120.505 58.23 119.63 61.24 117.88C64.32 116.06 66.7 113.4 68.38 109.9H85.285C82.835 117.39 78.53 123.235 72.37 127.435C66.28 131.565 59.105 133.63 50.845 133.63C43.845 133.63 37.51 132.055 31.84 128.905C26.24 125.685 21.795 121.24 18.505 115.57C15.285 109.9 13.675 103.46 13.675 96.25Z" fill="#333333"/>
<path d="M163.676 59.71L136.796 133H118.946L92.0657 59.71H107.816L127.976 117.985L148.031 59.71H163.676Z" fill="#614FD0"/>
<path d="M14.88 162.544C16.1387 162.779 17.1733 163.408 17.984 164.432C18.7947 165.456 19.2 166.629 19.2 167.952C19.2 169.147 18.9013 170.203 18.304 171.12C17.728 172.016 16.8853 172.72 15.776 173.232C14.6667 173.744 13.3547 174 11.84 174H2.208V151.664H11.424C12.9387 151.664 14.24 151.909 15.328 152.4C16.4373 152.891 17.2693 153.573 17.824 154.448C18.4 155.323 18.688 156.315 18.688 157.424C18.688 158.725 18.336 159.813 17.632 160.688C16.9493 161.563 16.032 162.181 14.88 162.544ZM6.688 160.88H10.784C11.8507 160.88 12.672 160.645 13.248 160.176C13.824 159.685 14.112 158.992 14.112 158.096C14.112 157.2 13.824 156.507 13.248 156.016C12.672 155.525 11.8507 155.28 10.784 155.28H6.688V160.88ZM11.2 170.352C12.288 170.352 13.1307 170.096 13.728 169.584C14.3467 169.072 14.656 168.347 14.656 167.408C14.656 166.448 14.336 165.701 13.696 165.168C13.056 164.613 12.192 164.336 11.104 164.336H6.688V170.352H11.2ZM27.2505 159.024C27.8265 158.085 28.5732 157.349 29.4905 156.816C30.4292 156.283 31.4958 156.016 32.6905 156.016V160.72H31.5065C30.0985 160.72 29.0318 161.051 28.3065 161.712C27.6025 162.373 27.2505 163.525 27.2505 165.168V174H22.7705V156.272H27.2505V159.024ZM43.58 174.288C41.8733 174.288 40.3373 173.915 38.972 173.168C37.6067 172.4 36.5293 171.323 35.74 169.936C34.972 168.549 34.588 166.949 34.588 165.136C34.588 163.323 34.9827 161.723 35.772 160.336C36.5827 158.949 37.6813 157.883 39.068 157.136C40.4547 156.368 42.0013 155.984 43.708 155.984C45.4147 155.984 46.9613 156.368 48.348 157.136C49.7347 157.883 50.8227 158.949 51.612 160.336C52.4227 161.723 52.828 163.323 52.828 165.136C52.828 166.949 52.412 168.549 51.58 169.936C50.7693 171.323 49.66 172.4 48.252 173.168C46.8653 173.915 45.308 174.288 43.58 174.288ZM43.58 170.384C44.3907 170.384 45.148 170.192 45.852 169.808C46.5773 169.403 47.1533 168.805 47.58 168.016C48.0067 167.227 48.22 166.267 48.22 165.136C48.22 163.451 47.772 162.16 46.876 161.264C46.0013 160.347 44.924 159.888 43.644 159.888C42.364 159.888 41.2867 160.347 40.412 161.264C39.5587 162.16 39.132 163.451 39.132 165.136C39.132 166.821 39.548 168.123 40.38 169.04C41.2333 169.936 42.3 170.384 43.58 170.384ZM54.9622 165.072C54.9622 163.28 55.3142 161.691 56.0182 160.304C56.7436 158.917 57.7143 157.851 58.9303 157.104C60.1676 156.357 61.5436 155.984 63.0583 155.984C64.3809 155.984 65.5329 156.251 66.5143 156.784C67.5169 157.317 68.3169 157.989 68.9143 158.8V156.272H73.4263V174H68.9143V171.408C68.3383 172.24 67.5383 172.933 66.5143 173.488C65.5116 174.021 64.3489 174.288 63.0263 174.288C61.5329 174.288 60.1676 173.904 58.9303 173.136C57.7143 172.368 56.7436 171.291 56.0182 169.904C55.3142 168.496 54.9622 166.885 54.9622 165.072ZM68.9143 165.136C68.9143 164.048 68.7009 163.12 68.2743 162.352C67.8476 161.563 67.2716 160.965 66.5463 160.56C65.8209 160.133 65.0423 159.92 64.2103 159.92C63.3783 159.92 62.6103 160.123 61.9062 160.528C61.2023 160.933 60.6263 161.531 60.1783 162.32C59.7516 163.088 59.5383 164.005 59.5383 165.072C59.5383 166.139 59.7516 167.077 60.1783 167.888C60.6263 168.677 61.2023 169.285 61.9062 169.712C62.6316 170.139 63.3996 170.352 64.2103 170.352C65.0423 170.352 65.8209 170.149 66.5463 169.744C67.2716 169.317 67.8476 168.72 68.2743 167.952C68.7009 167.163 68.9143 166.224 68.9143 165.136ZM76.6497 165.072C76.6497 163.28 77.0017 161.691 77.7057 160.304C78.4311 158.917 79.4124 157.851 80.6498 157.104C81.8871 156.357 83.2631 155.984 84.7778 155.984C85.9298 155.984 87.0284 156.24 88.0738 156.752C89.1191 157.243 89.9511 157.904 90.5698 158.736V150.32H95.1138V174H90.5698V171.376C90.0151 172.251 89.2364 172.955 88.2338 173.488C87.2311 174.021 86.0684 174.288 84.7458 174.288C83.2524 174.288 81.8871 173.904 80.6498 173.136C79.4124 172.368 78.4311 171.291 77.7057 169.904C77.0017 168.496 76.6497 166.885 76.6497 165.072ZM90.6018 165.136C90.6018 164.048 90.3884 163.12 89.9618 162.352C89.5351 161.563 88.9591 160.965 88.2338 160.56C87.5084 160.133 86.7298 159.92 85.8978 159.92C85.0658 159.92 84.2978 160.123 83.5938 160.528C82.8898 160.933 82.3138 161.531 81.8658 162.32C81.4391 163.088 81.2258 164.005 81.2258 165.072C81.2258 166.139 81.4391 167.077 81.8658 167.888C82.3138 168.677 82.8898 169.285 83.5938 169.712C84.3191 170.139 85.0871 170.352 85.8978 170.352C86.7298 170.352 87.5084 170.149 88.2338 169.744C88.9591 169.317 89.5351 168.72 89.9618 167.952C90.3884 167.163 90.6018 166.224 90.6018 165.136ZM98.3372 165.136C98.3372 163.301 98.7106 161.701 99.4573 160.336C100.204 158.949 101.239 157.883 102.561 157.136C103.884 156.368 105.399 155.984 107.105 155.984C109.303 155.984 111.116 156.539 112.545 157.648C113.996 158.736 114.967 160.272 115.457 162.256H110.625C110.369 161.488 109.932 160.891 109.313 160.464C108.716 160.016 107.969 159.792 107.073 159.792C105.793 159.792 104.78 160.261 104.033 161.2C103.287 162.117 102.913 163.429 102.913 165.136C102.913 166.821 103.287 168.133 104.033 169.072C104.78 169.989 105.793 170.448 107.073 170.448C108.887 170.448 110.071 169.637 110.625 168.016H115.457C114.967 169.936 113.996 171.461 112.545 172.592C111.095 173.723 109.281 174.288 107.105 174.288C105.399 174.288 103.884 173.915 102.561 173.168C101.239 172.4 100.204 171.333 99.4573 169.968C98.7106 168.581 98.3372 166.971 98.3372 165.136ZM117.587 165.072C117.587 163.28 117.939 161.691 118.643 160.304C119.369 158.917 120.339 157.851 121.555 157.104C122.793 156.357 124.169 155.984 125.683 155.984C127.006 155.984 128.158 156.251 129.139 156.784C130.142 157.317 130.942 157.989 131.539 158.8V156.272H136.051V174H131.539V171.408C130.963 172.24 130.163 172.933 129.139 173.488C128.137 174.021 126.974 174.288 125.651 174.288C124.158 174.288 122.793 173.904 121.555 173.136C120.339 172.368 119.369 171.291 118.643 169.904C117.939 168.496 117.587 166.885 117.587 165.072ZM131.539 165.136C131.539 164.048 131.326 163.12 130.899 162.352C130.473 161.563 129.897 160.965 129.171 160.56C128.446 160.133 127.667 159.92 126.835 159.92C126.003 159.92 125.235 160.123 124.531 160.528C123.827 160.933 123.251 161.531 122.803 162.32C122.377 163.088 122.163 164.005 122.163 165.072C122.163 166.139 122.377 167.077 122.803 167.888C123.251 168.677 123.827 169.285 124.531 169.712C125.257 170.139 126.025 170.352 126.835 170.352C127.667 170.352 128.446 170.149 129.171 169.744C129.897 169.317 130.473 168.72 130.899 167.952C131.326 167.163 131.539 166.224 131.539 165.136ZM147.211 174.288C145.76 174.288 144.459 174.032 143.307 173.52C142.155 172.987 141.237 172.272 140.555 171.376C139.893 170.48 139.531 169.488 139.467 168.4H143.979C144.064 169.083 144.395 169.648 144.971 170.096C145.568 170.544 146.304 170.768 147.179 170.768C148.032 170.768 148.693 170.597 149.163 170.256C149.653 169.915 149.899 169.477 149.899 168.944C149.899 168.368 149.6 167.941 149.003 167.664C148.427 167.365 147.499 167.045 146.219 166.704C144.896 166.384 143.808 166.053 142.955 165.712C142.123 165.371 141.397 164.848 140.779 164.144C140.181 163.44 139.883 162.491 139.883 161.296C139.883 160.315 140.16 159.419 140.715 158.608C141.291 157.797 142.101 157.157 143.147 156.688C144.213 156.219 145.461 155.984 146.891 155.984C149.003 155.984 150.688 156.517 151.947 157.584C153.205 158.629 153.899 160.048 154.027 161.84H149.739C149.675 161.136 149.376 160.581 148.843 160.176C148.331 159.749 147.637 159.536 146.763 159.536C145.952 159.536 145.323 159.685 144.875 159.984C144.448 160.283 144.235 160.699 144.235 161.232C144.235 161.829 144.533 162.288 145.131 162.608C145.728 162.907 146.656 163.216 147.915 163.536C149.195 163.856 150.251 164.187 151.083 164.528C151.915 164.869 152.629 165.403 153.227 166.128C153.845 166.832 154.165 167.771 154.187 168.944C154.187 169.968 153.899 170.885 153.323 171.696C152.768 172.507 151.957 173.147 150.891 173.616C149.845 174.064 148.619 174.288 147.211 174.288ZM163.08 159.952V168.528C163.08 169.125 163.219 169.563 163.496 169.84C163.795 170.096 164.286 170.224 164.968 170.224H167.048V174H164.232C160.456 174 158.568 172.165 158.568 168.496V159.952H156.456V156.272H158.568V151.888H163.08V156.272H167.048V159.952H163.08Z" fill="#333333"/>
<path d="M31.76 16.08V20.6H24.32V44H18.72V20.6H11.28V16.08H31.76ZM48.3259 21.52C50.0059 21.52 51.4993 21.8933 52.8059 22.64C54.1126 23.36 55.1259 24.44 55.8459 25.88C56.5926 27.2933 56.9659 29 56.9659 31V44H51.3659V31.76C51.3659 30 50.9259 28.6533 50.0459 27.72C49.1659 26.76 47.9659 26.28 46.4459 26.28C44.8993 26.28 43.6726 26.76 42.7659 27.72C41.8859 28.6533 41.4459 30 41.4459 31.76V44H35.8459V14.4H41.4459V24.6C42.1659 23.64 43.1259 22.8933 44.3259 22.36C45.5259 21.8 46.8593 21.52 48.3259 21.52ZM82.8913 32.44C82.8913 33.24 82.8379 33.96 82.7313 34.6H66.5313C66.6646 36.2 67.2246 37.4533 68.2113 38.36C69.1979 39.2667 70.4113 39.72 71.8513 39.72C73.9313 39.72 75.4113 38.8267 76.2913 37.04H82.3313C81.6913 39.1733 80.4646 40.9333 78.6513 42.32C76.8379 43.68 74.6113 44.36 71.9713 44.36C69.8379 44.36 67.9179 43.8933 66.2113 42.96C64.5313 42 63.2113 40.6533 62.2513 38.92C61.3179 37.1867 60.8512 35.1867 60.8512 32.92C60.8512 30.6267 61.3179 28.6133 62.2513 26.88C63.1846 25.1467 64.4913 23.8133 66.1713 22.88C67.8513 21.9467 69.7846 21.48 71.9713 21.48C74.0779 21.48 75.9579 21.9333 77.6113 22.84C79.2913 23.7467 80.5846 25.04 81.4913 26.72C82.4246 28.3733 82.8913 30.28 82.8913 32.44ZM77.0913 30.84C77.0646 29.4 76.5446 28.2533 75.5313 27.4C74.5179 26.52 73.2779 26.08 71.8113 26.08C70.4246 26.08 69.2513 26.5067 68.2913 27.36C67.3579 28.1867 66.7846 29.3467 66.5713 30.84H77.0913Z" fill="#333333"/>
</svg>
